<svg width="20" height="23" viewBox="0 0 20 23" fill="none" xmlns="http://www.w3.org/2000/svg">
<path d="M10.1847 1.91784C6.71372 1.91784 3.89994 4.71846 3.89994 8.1732C3.89994 9.64738 4.73951 11.2451 5.93471 12.7436C7.11232 14.2198 8.54196 15.4847 9.52312 16.2769C9.9155 16.5937 10.4539 16.5937 10.8463 16.2769C11.8274 15.4847 13.2571 14.2198 14.4347 12.7436C15.6299 11.2451 16.4694 9.64738 16.4694 8.1732C16.4694 4.71846 13.6557 1.91784 10.1847 1.91784ZM2.32876 8.1732C2.32876 3.85477 5.84597 0.354004 10.1847 0.354004C14.5234 0.354004 18.0406 3.85477 18.0406 8.1732C18.0406 10.1873 16.9257 12.1357 15.6652 13.7159C14.3871 15.3182 12.8599 16.6647 11.8361 17.4914C10.8669 18.274 9.50248 18.274 8.53327 17.4914C7.50951 16.6647 5.98226 15.3182 4.70417 13.7159C3.44366 12.1357 2.32876 10.1873 2.32876 8.1732ZM10.1847 6.60936C9.31698 6.60936 8.61351 7.30951 8.61351 8.1732C8.61351 9.03686 9.31698 9.73704 10.1847 9.73704C11.0524 9.73704 11.7559 9.03686 11.7559 8.1732C11.7559 7.30951 11.0524 6.60936 10.1847 6.60936ZM7.04232 8.1732C7.04232 6.44584 8.44916 5.04552 10.1847 5.04552C11.9202 5.04552 13.3271 6.44584 13.3271 8.1732C13.3271 9.90062 11.9202 11.3009 10.1847 11.3009C8.44916 11.3009 7.04232 9.90062 7.04232 8.1732ZM16.1359 14.7897C15.7554 15.2403 15.3612 15.6674 14.9698 16.0656C15.3423 16.1693 15.6893 16.2843 16.0072 16.409C16.7352 16.6944 17.271 17.0148 17.6117 17.3306C17.9513 17.6455 18.0406 17.8984 18.0406 18.0774C18.0406 18.2563 17.9513 18.5092 17.6117 18.8241C17.271 19.1399 16.7352 19.4604 16.0072 19.7457C14.5562 20.3147 12.4979 20.6838 10.1847 20.6838C7.87152 20.6838 5.81323 20.3147 4.36214 19.7457C3.63426 19.4604 3.0984 19.1399 2.75768 18.8241C2.4181 18.5092 2.32876 18.2563 2.32876 18.0774C2.32876 17.8984 2.4181 17.6455 2.75768 17.3306C3.0984 17.0148 3.63426 16.6944 4.36214 16.409C4.68005 16.2843 5.02708 16.1693 5.39957 16.0656C5.00818 15.6674 4.61398 15.2403 4.23344 14.7897C4.08018 14.8425 3.93104 14.8972 3.78627 14.954C2.95036 15.2817 2.22068 15.6914 1.68683 16.1863C1.15183 16.6823 0.757568 17.3207 0.757568 18.0774C0.757568 18.834 1.15183 19.4725 1.68683 19.9684C2.22068 20.4633 2.95036 20.873 3.78627 21.2008C5.4628 21.8582 7.72528 22.2477 10.1847 22.2477C12.6441 22.2477 14.9066 21.8582 16.5831 21.2008C17.4191 20.873 18.1487 20.4633 18.6825 19.9684C19.2176 19.4725 19.6118 18.834 19.6118 18.0774C19.6118 17.3207 19.2176 16.6823 18.6825 16.1863C18.1487 15.6914 17.4191 15.2817 16.5831 14.954C16.4383 14.8972 16.2892 14.8425 16.1359 14.7897Z" fill="#212121"/>
</svg>
